<svg xmlns="http://www.w3.org/2000/svg" width="720" height="360" viewBox="0 0 720 360" fill="none" role="img" aria-label="Car">
  <defs>
    <linearGradient id="bg" x1="0" y1="0" x2="720" y2="360" gradientUnits="userSpaceOnUse">
      <stop stop-color="#FBFEFE"/>
      <stop offset="1" stop-color="#FFFFFF"/>
    </linearGradient>
    <radialGradient id="a" cx="0" cy="0" r="1" gradientUnits="userSpaceOnUse" gradientTransform="translate(220 110) rotate(20) scale(320 160)">
      <stop stop-color="#590425" stop-opacity="0.10"/>
      <stop offset="1" stop-color="#590425" stop-opacity="0"/>
    </radialGradient>
  </defs>

  <rect x="14" y="14" width="692" height="332" rx="22" fill="url(#bg)"/>
  <rect x="14" y="14" width="692" height="332" rx="22" fill="url(#a)"/>
  <rect x="14" y="14" width="692" height="332" rx="22" stroke="#101828" stroke-opacity="0.08"/>

  <!-- Minimal car line art -->
  <path d="M140 210c12-34 32-60 62-82 26-18 64-28 120-32 42-3 94-3 156 0 48 3 86 12 114 28 24 14 42 34 54 62 14 4 22 14 22 26v22c0 14-12 26-26 26H596c-6 0-10-4-10-10v-6H278v6c0 6-4 10-10 10H154c-14 0-26-12-26-26v-24c0-12 6-22 12-24z"
    fill="#FFFFFF" stroke="#101828" stroke-opacity="0.12" stroke-width="2"/>
  <path d="M174 218h372" stroke="#590425" stroke-opacity="0.55" stroke-width="4" stroke-linecap="round"/>
  <circle cx="256" cy="266" r="34" fill="#101828" fill-opacity="0.90"/>
  <circle cx="256" cy="266" r="20" fill="#FFFFFF"/>
  <circle cx="256" cy="266" r="6" fill="#590425"/>
  <circle cx="496" cy="266" r="34" fill="#101828" fill-opacity="0.90"/>
  <circle cx="496" cy="266" r="20" fill="#FFFFFF"/>
  <circle cx="496" cy="266" r="6" fill="#590425"/>

  <ellipse cx="368" cy="298" rx="220" ry="14" fill="#101828" fill-opacity="0.06"/>
</svg>
